PathFileType	4	(X/Y/Z)	Kaydara	
DataRate	CameraRate	NumFrames	NumMarkers	Units	OrigDataRate	OrigDataStartFrame	OrigNumFrames	
120.00	120.00	4	72	mm	120.00	131	261	
Frame#	Time	Hips			RightUpLeg			RightLeg			RightFoot			RightFoot_End			LeftUpLeg			LeftLeg			LeftFoot			LeftFoot_End			Spine			Spine1			Spine2			Spine3			Neck			Head			Head_End			RightShoulder			RightArm			RightForeArm			RightHand			RightHandThumb1			RightHandThumb2			RightHandThumb3			RightHandThumb3_End			RightInHandIndex			RightHandIndex1			RightHandIndex2			RightHandIndex3			RightHandIndex3_End			RightInHandMiddle			RightHandMiddle1			RightHandMiddle2			RightHandMiddle3			RightHandMiddle3_End			RightInHandRing			RightHandRing1			RightHandRing2			RightHandRing3			RightHandRing3_End			RightInHandPinky			RightHandPinky1			RightHandPinky2			RightHandPinky3			RightHandPinky3_End			LeftShoulder			LeftArm			LeftForeArm			LeftHand			LeftHandThumb1			LeftHandThumb2			LeftHandThumb3			LeftHandThumb3_End			LeftInHandIndex			LeftHandIndex1			LeftHandIndex2			LeftHandIndex3			LeftHandIndex3_End			LeftInHandMiddle			LeftHandMiddle1			LeftHandMiddle2			LeftHandMiddle3			LeftHandMiddle3_End			LeftInHandRing			LeftHandRing1			LeftHandRing2			LeftHandRing3			LeftHandRing3_End			LeftInHandPinky			LeftHandPinky1			LeftHandPinky2			LeftHandPinky3			LeftHandPinky3_End			
		X1	Y1	Z1	X2	Y2	Z2	X3	Y3	Z3	X4	Y4	Z4	X5	Y5	Z5	X6	Y6	Z6	X7	Y7	Z7	X8	Y8	Z8	X9	Y9	Z9	X10	Y10	Z10	X11	Y11	Z11	X12	Y12	Z12	X13	Y13	Z13	X14	Y14	Z14	X15	Y15	Z15	X16	Y16	Z16	X17	Y17	Z17	X18	Y18	Z18	X19	Y19	Z19	X20	Y20	Z20	X21	Y21	Z21	X22	Y22	Z22	X23	Y23	Z23	X24	Y24	Z24	X25	Y25	Z25	X26	Y26	Z26	X27	Y27	Z27	X28	Y28	Z28	X29	Y29	Z29	X30	Y30	Z30	X31	Y31	Z31	X32	Y32	Z32	X33	Y33	Z33	X34	Y34	Z34	X35	Y35	Z35	X36	Y36	Z36	X37	Y37	Z37	X38	Y38	Z38	X39	Y39	Z39	X40	Y40	Z40	X41	Y41	Z41	X42	Y42	Z42	X43	Y43	Z43	X44	Y44	Z44	X45	Y45	Z45	X46	Y46	Z46	X47	Y47	Z47	X48	Y48	Z48	X49	Y49	Z49	X50	Y50	Z50	X51	Y51	Z51	X52	Y52	Z52	X53	Y53	Z53	X54	Y54	Z54	X55	Y55	Z55	X56	Y56	Z56	X57	Y57	Z57	X58	Y58	Z58	X59	Y59	Z59	X60	Y60	Z60	X61	Y61	Z61	X62	Y62	Z62	X63	Y63	Z63	X64	Y64	Z64	X65	Y65	Z65	X66	Y66	Z66	X67	Y67	Z67	X68	Y68	Z68	X69	Y69	Z69	X70	Y70	Z70	X71	Y71	Z71	X72	Y72	Z72	

131	1.083	4081.203	893.81699	129.612	4159.5833342776505	894.8547264350481	92.83090690910664	4047.992057351865	493.9151105031616	47.59814749572987	4055.8709893859645	113.42062735637916	17.849972387128098	3949.0783902002445	39.566153923781194	157.65803178863015	4014.380526687187	866.5701404024568	180.5946043445821	3907.4310516264536	479.0937791404842	297.2994174163502	3788.571791140307	86.11172463065887	457.4367843875962	3644.0592489347523	39.28989501621549	342.4221208154691	4027.2380551494393	1014.5642096580619	75.75828558716127	3972.512611118935	1077.4608325322638	26.12740360266599	3911.7279001405773	1137.2270325181503	-28.22191130051766	3848.902081592895	1185.2744735358297	-84.62439903886903	3780.002373609463	1237.715394213453	-141.900249084639	3707.499616024182	1278.6053853831847	-185.53932175532674	3568.357193146142	1355.6075811374137	-197.48835240778527	3823.543136289508	1233.2322153964683	-136.07498441931608	3901.8012535509256	1280.388452803251	-192.95814819591644	4020.9425591303716	1096.3438250972363	-275.87574256339093	4192.6462197102255	1031.493352652494	-379.4769505258002	4204.751521337589	1053.4645179738334	-397.1503789768372	4207.317524689579	1059.3099835950445	-425.55613816507497	4210.354375851397	1059.6029308403274	-445.1805132679634	4213.9553051047005	1056.6153081434877	-461.4058536454432	4211.990683372155	1042.6353820457707	-397.3738335928552	4239.052617303701	1042.629943513981	-427.7534780217562	4249.08201853035	1038.9000464169267	-453.3486466886879	4247.36723358981	1037.6137067544937	-469.4767839537728	4240.585349581159	1037.2454801221713	-482.9714853020215	4214.0298275508685	1032.1833601559813	-396.10004951382604	4241.530708264453	1026.5256136882447	-425.0411822012991	4252.645066343148	1021.0717952974796	-452.70955150408906	4250.65793365239	1018.8558514491439	-472.0422814698492	4243.277029961103	1018.1301383266798	-486.74703122534015	4214.882844926798	1024.8122818354486	-394.3846743558065	4240.570788155388	1013.3816184818778	-418.7149938392068	4250.387671779998	1007.2224799065175	-442.5188604002043	4248.539717446451	1004.3385883236582	-461.0011318158785	4241.632395369257	1003.3025185643099	-474.7487866421926	4214.271047741549	1016.2133727526242	-391.8442280627049	4237.808862338847	1000.4721275381611	-412.4685665017417	4245.759219099058	993.3970193968248	-430.93728150297204	4244.454538914411	990.2568077412349	-444.1316970508987	4238.3606518462675	988.7423924779653	-456.1449235228853	3782.177026447148	1205.9544376313108	-110.19500275263725	3721.2929337864025	1120.652795275334	-75.50258942122841	3916.7603001639313	1055.943035139353	-179.51885758125513	4114.135060876767	1027.5318487029976	-278.1872956402302	4128.954615524144	1052.2923552196607	-286.99402269150477	4156.151426113204	1061.5776313842518	-278.3889342072261	4176.89784774737	1064.3607331098906	-272.20792498309794	4195.7387045545265	1063.5300284271023	-266.8938910099203	4136.441163812091	1042.0767849601264	-289.0047396827303	4178.74469741108	1047.54394621662	-296.70315436337586	4210.0488405736405	1047.5247596859667	-292.02814532481955	4225.78013355021	1047.9899771170756	-283.17103780988344	4236.284598582544	1048.6968903732607	-271.8261101762144	4139.970958112977	1031.6871243460876	-287.74745362178305	4183.141285272807	1031.4009477226855	-294.57904851223435	4217.631193376415	1029.9866039134833	-289.2742827231026	4236.769176987717	1029.8792244924455	-278.49088944585304	4248.34013761929	1030.3276569207721	-266.0300195770014	4141.386527789518	1024.2231513537556	-286.764895334763	4181.308352291972	1017.533747747554	-292.3333573950609	4211.640005995419	1014.8770800395562	-287.4899152188826	4230.243552727634	1014.0173166011783	-276.97173728751545	4241.1911413644275	1014.0806194642201	-265.20005880047296	4141.782308603999	1015.3373639159428	-284.60456956688836	4178.66035550669	1003.7787412127358	-288.7254072862208	4203.1961387070805	999.458950467284	-284.47902050675043	4216.885275598522	997.7712868707089	-276.62903542807084	4226.651912091532	997.217000713185	-266.09880908285555
132	1.092	4081.203	893.81699	129.612	4159.033050583761	894.5248488892554	92.70395127564417	4047.622964159516	493.5228878607823	47.83742614678812	4056.3973364277595	113.47687080308665	17.175985199741664	3949.964510348004	39.34712505120005	156.98031648999302	4014.910030133608	866.8907284881277	180.72423503532332	3907.8436028027736	479.395379698512	297.2275481979642	3789.091827377187	86.23516223443907	456.7705072871678	3644.6205942490496	39.19187447275381	341.81797191186746	4027.3963012259396	1014.6071932455123	75.7014204653377	3972.730445875793	1077.5649677386093	26.07957342176706	3911.999940878439	1137.406463724615	-28.249041079349368	3849.210279738035	1185.5447173575267	-84.61295360038662	3780.35227592208	1238.0753323043677	-141.85588323897014	3707.9070480767455	1279.0666236986474	-185.47189487657437	3568.739186696906	1356.0223475763903	-197.3782859972177	3823.721208279228	1233.3920197214568	-136.01081539018585	3901.386402242533	1279.9547787040074	-192.56740060633817	4020.210363879028	1096.5682347774452	-274.29441945145567	4190.526664200266	1031.9703195930977	-376.9587467016492	4202.616364403238	1053.9491585389517	-394.49925371258433	4205.204575243383	1059.8230803808394	-422.7385981462461	4208.241976521989	1060.1364917960673	-442.242830884307	4211.830604207062	1057.1664819612567	-458.3643773681532	4209.791108664287	1043.1212884746537	-394.6947527448245	4236.716654384866	1043.1395256413693	-424.81502181818115	4246.701985798788	1039.4354942148461	-450.23247876603733	4245.010444320969	1038.1680250592108	-466.27525369127085	4238.2819581475005	1037.8172987485764	-479.7162437779294	4211.796849103024	1032.6706482282534	-393.4185665271799	4239.146617646425	1027.0367391824143	-422.10541343295137	4250.208985992098	1021.6112632402204	-449.5803918395776	4248.248022911705	1019.4181418709069	-468.8103880389635	4240.924635567145	1018.7116050576892	-483.45649226666995	4212.6291062937535	1025.299855860942	-391.70800638862966	4238.161726215901	1013.8905514855226	-415.8142981009762	4247.929552152634	1007.7561989013561	-439.450546950483	4246.104854018831	1004.8943662807246	-457.8342231379904	4239.250669426991	1003.8763478998299	-471.52697285666557	4212.002381576809	1016.7012707712463	-389.18147208668887	4235.386338119811	1000.9795328254195	-409.6084649237767	4243.292254176771	993.9243101632945	-427.94540397342416	4242.002042475211	990.8002066079152	-441.0690879606998	4235.953791513432	989.3017930213298	-453.0343590038801	3782.669410377615	1206.4626384525839	-110.1834209707757	3722.237683912777	1121.9844236217198	-75.51139038671504	3916.6036272083406	1056.8737229178134	-178.39440049951446	4112.611450659433	1028.1771316402335	-276.10810869529	4127.336431165384	1052.913707028776	-284.8524621482953	4154.355624695173	1062.1516490206693	-276.2490843511274	4174.969164261739	1064.9027355303178	-270.0620355411098	4193.691380934818	1064.0461519974504	-264.736780900828	4134.784841885912	1042.701643001162	-286.8212289023701	4176.836375235015	1048.1311322914937	-294.37802517420283	4207.946541853237	1048.073431025583	-289.65951576621546	4223.574064706533	1048.510103648981	-280.8224623144168	4234.003988946518	1049.1902878666126	-269.52590243820225	4138.297526992606	1032.315287927796	-285.55182092152177	4181.2128127414735	1031.9941582899667	-292.2387134194627	4215.489589386702	1030.538331238654	-286.8854093156491	4234.501676072205	1030.396774248385	-276.12569644809474	4245.990734636662	1030.8160862928264	-263.717499810999	4139.707518584062	1024.8547349317562	-284.5636787705085	4179.396162672165	1018.1373372542913	-289.99575443215275	4209.540956057027	1015.4451208390026	-285.109146100831	4228.022484372653	1014.5527141017885	-274.61335334742864	4238.892787698885	1014.5887903462434	-262.8909849575063	4140.103551405923	1015.9730082028566	-282.4060173570555	4176.768063800336	1004.3916145095365	-286.4012302889701	4201.153525030378	1000.044428458958	-282.1195359327768	4214.753326511162	998.3334728935758	-274.2855195342628	4224.4513085552735	997.7553664417081	-263.7987671034431
133	1.1	4081.203	893.81699	129.612	4158.47125484716	894.1903712401562	92.5752271510839	4047.2695646150883	493.12921878539316	48.002461721546474	4056.9383372382176	113.53978910224565	16.40299571912128	3950.882887426668	39.147312572154306	156.2188340986038	4015.4512206643835	867.2164150698482	180.85636984630025	3908.2823215206095	479.6861530423772	297.1217294048231	3789.639362164225	86.34267821072027	456.05486634571383	3645.2090528345707	39.080352623437584	341.1657207425441	4027.554945175955	1014.6479441086299	75.64025758678528	3972.949834463651	1077.6664070736563	26.026028739738834	3912.2749560130364	1137.5831917779497	-28.282902368842798	3849.5227841312253	1185.8130345499048	-84.60819136747335	3780.708008893008	1238.4341405382988	-141.8185121177391	3708.318450401814	1279.5270054894058	-185.40857677413837	3569.122784585511	1356.4327217204136	-197.26716342281023	3823.899222483622	1233.5439797739164	-135.9526854314868	3900.93847440768	1279.4788456674821	-192.1789918091712	4019.443587951792	1096.7799024058315	-272.6615864882243	4188.358385367462	1032.474792522741	-374.31311516596156	4200.419743181903	1054.4496320284252	-391.7137760046635	4203.024041966008	1060.346723579122	-419.76903126529703	4206.058434894679	1060.6776294562605	-439.14006661570033	4209.6323965023375	1057.7233657244838	-455.1462972994185	4207.53076362393	1043.623896070318	-391.8787155572024	4234.306972544532	1043.654588012361	-421.7192138908657	4244.2427428443125	1039.971884353566	-446.9409878312667	4242.573394385241	1038.7225508061397	-462.8873442602301	4235.899030814074	1038.390123813308	-476.26555084024415	4209.505631592783	1033.1771193321429	-390.59862726771706	4236.69302655195	1027.5574447559864	-419.0104848795162	4247.697793127183	1022.1557274297525	-446.27232533362496	4245.761915079836	1019.9847186183683	-465.3861836523813	4238.496925831697	1019.29831807848	-479.9636835800054	4210.319213476447	1025.808621913024	-388.89237197397983	4235.688129041686	1014.41372407386	-412.75572500574975	4245.4024130894795	1008.3005539486854	-436.20703724401636	4243.600140643728	1005.4603033058586	-454.47913190176894	4236.800025336115	1004.4613376795586	-468.1075860359444	4209.680605154508	1017.2132440514308	-386.379520830443	4232.90477581515	1001.5063072839781	-406.5917743026509	4240.763331886693	994.4687258398985	-424.78298428018604	4239.487307882298	991.3606928059953	-437.82642320534904	4233.485705116758	989.8793462636551	-449.73539662816444	3783.1724766777334	1206.9761324668177	-110.17920784915452	3723.2161240452106	1123.358818864084	-75.50571597787481	3916.4370860401373	1057.7973564163594	-177.21396694483502	4111.044469762088	1028.7724421849575	-273.9750567256224	4125.661647000409	1053.4828245517338	-282.6521592974159	4152.493782408533	1062.6719007955414	-274.0563653301283	4172.969100987203	1065.390217519405	-267.86787358110666	4191.569284034445	1064.507393525897	-262.53566373730627	4133.074950940447	1043.2751749261442	-284.57933590497174	4174.864287849551	1048.6660992128293	-291.99386040364993	4205.774376351517	1048.5692826497898	-287.2367863485998	4221.294665969839	1048.9768638528753	-278.4254519780418	4231.64740534303	1049.6297494744535	-267.18370068940266	4136.5742904854915	1032.8930069636933	-283.2994630435253	4179.226625144848	1032.5365298272388	-289.84191070686796	4213.284143547087	1031.038683807938	-284.4456819254832	4232.166409734984	1030.862346769597	-273.7165933005667	4243.570797088963	1031.2519431412386	-261.36817028061853	4137.981619118061	1025.4365211541663	-282.3068731171695	4177.43251287919	1018.6913428159907	-287.60362830118174	4207.3856609861	1015.9632328259013	-282.67897910219193	4225.741681135621	1015.037666885221	-272.21239329609534	4236.532235140609	1015.0459874092143	-260.54606958834864	4138.381591004344	1016.5596139878842	-280.153610174727	4174.83063382851	1004.9561178105677	-284.02507204148986	4199.062827334538	1000.581450722527	-279.71253309255815	4212.571176737493	998.8469187155239	-271.8996346789101	4222.198568291491	998.2445763096438	-261.46242184980247
134	1.108	4081.203	893.81699	129.612	4157.898443407351	893.8514873385436	92.44685249835048	4046.930953604929	492.7353112994823	48.09077675692256	4057.4976279548623	113.61064007274801	15.531834055474224	3951.8378278043583	38.97055164719761	155.37628649889126	4016.003297805404	867.5470145847593	180.98914266803828	3908.748365957706	479.96764042752847	296.988133298942	3790.2153344540293	86.43564428755042	455.29570586075596	3645.8263899058675	38.96502227000565	340.46723696611525	4027.7151085514547	1014.6864083284726	75.57356262827899	3973.1729335641553	1077.7654073515905	25.964811598424504	3912.5560829016367	1137.7578648278688	-28.32610691854241	3849.8434765316406	1186.080504964967	-84.61319856122223	3781.0743723756827	1238.7933741901054	-141.79189561037293	3708.7398164830142	1279.9889622338812	-185.35439008094139	3569.5150824937728	1356.8426552900728	-197.16189096894348	3824.0818995600985	1233.688796802201	-135.90446678382094	3900.4622324086845	1278.9619015924795	-191.79473973511244	4018.652596304844	1096.9851822307705	-270.9783973963981	4186.1502975089625	1033.0156145354374	-371.5409719608117	4198.168568552605	1054.9755506025483	-388.79360557778335	4200.7817927110855	1060.8921077934863	-416.64613819524175	4203.809135622589	1061.2387605065464	-435.8704111929462	4207.365871902757	1058.299497826933	-451.7495141247487	4205.2171993816455	1044.1532921302191	-388.9258358326333	4231.830148219646	1044.187678499262	-418.46551349613617	4241.710442637578	1040.5236168300123	-443.4731600923985	4240.061990903769	1039.2926233386372	-459.31166016277945	4233.442282875681	1038.9799291240977	-472.6176362046806	4207.1644336251875	1033.7131086213944	-387.6407970335746	4234.177625538592	1028.100599576351	-415.756567515301	4245.1188129502425	1022.7201028567695	-442.7850684365987	4243.2066852260305	1020.571641932786	-461.7689539506507	4236.0007886641415	1019.907037694196	-476.2674949305342	4207.961948564238	1026.3490273065909	-385.9386730942573	4233.158720557616	1014.963951402721	-409.5401187187078	4242.814760067743	1008.8701649056126	-432.7888428360197	4241.033894483577	1006.0521352998755	-450.93598795256105	4234.288629464952	1005.0738873360638	-464.49039988430286	4207.315141575241	1017.7597990427442	-383.43967483604786	4230.373935982261	1002.0651660155088	-403.4199913286746	4238.182193957514	995.0444497320254	-421.4513523272303	4236.920014993928	991.9532748716845	-434.4048022703778	4230.965982319597	990.4906549454676	-446.24884811667835	3783.6904619029438	1207.4970035494605	-110.18553668128061	3724.2319919812426	1124.7789482229553	-75.48439794649039	3916.2625322518384	1058.706790061479	-175.9768801354867	4109.438579522215	1029.303426984541	-271.7894869340296	4123.933926670186	1053.9850806640227	-280.3924844471017	4150.568949097591	1063.1229376142744	-271.80921588940623	4170.900424932178	1065.8072364216398	-265.6233617629288	4189.375068828452	1064.8974663929773	-260.2881455509646	4131.315618561553	1043.7830907772322	-282.27862970217836	4172.832508930899	1049.134602052496	-289.5484179173839	4203.5362812474605	1048.9976761848616	-284.75696528794145	4218.945621679067	1049.3750738390856	-275.97686173755017	4229.218209437253	1049.999436727326	-264.7964438614057	4134.805766827759	1033.4061842672643	-280.99039736223745	4177.187399359953	1033.0141135872964	-287.3871335211276	4211.019435475843	1031.4733081291715	-281.95284125943704	4229.767677300909	1031.2609422816752	-271.26116728243477	4241.084283249001	1031.6195173815595	-258.9797255347859	4136.213626915938	1025.9545527900511	-279.994853914151	4175.42259083154	1019.1820757976665	-285.15628584928885	4205.17927629917	1016.4173997172306	-280.1981349131005	4223.406055921889	1015.4575484985951	-269.76746668673	4234.114089395854	1015.4369225569404	-258.1640406013106	4136.621533024074	1017.0833457972377	-277.84822579939396	4172.853725824092	1005.458753387846	-281.5971235049457	4196.92976000061	1001.0562950157948	-277.2578467068158	4210.344402552439	999.297475292822	-269.4711893359748	4219.899017592199	998.6699056632241	-259.0897181745333
